HIERARCHY
ROOT Hips
{
	OFFSET 0.000000 0.000000 0.000000
	CHANNELS 6 Xposition Yposition Zposition Xrotation Yrotation Zrotation
	JOINT LeftUpLeg_virtual
	{
		OFFSET 0.000000 0.000000 0.000000
		CHANNELS 3 Xrotation Yrotation Zrotation
		JOINT LeftUpLeg
		{
			OFFSET 11.394100 -6.187798 -0.413800
			CHANNELS 3 Xrotation Yrotation Zrotation
			JOINT LeftLeg
			{
				OFFSET 0.430247 -32.302673 3.732800
				CHANNELS 3 Xrotation Yrotation Zrotation
				JOINT LeftFoot
				{
					OFFSET -0.430247 -48.264931 -6.423300
					CHANNELS 3 Xrotation Yrotation Zrotation
					JOINT LeftToeBase
					{
						OFFSET 4.230900 -16.068199 23.438400
						CHANNELS 3 Xrotation Yrotation Zrotation
						JOINT LeftToe_End
						{
							OFFSET 4.510700 0.695400 19.974600
							CHANNELS 3 Xrotation Yrotation Zrotation
							End Site
							{
								OFFSET 0 0 0
							}
						}
					}
				}
			}
		}
	}
	JOINT RightUpLeg_virtual
	{
		OFFSET 0.000000 0.000000 0.000000
		CHANNELS 3 Xrotation Yrotation Zrotation
		JOINT RightUpLeg
		{
			OFFSET -11.333700 -6.187798 -0.413800
			CHANNELS 3 Xrotation Yrotation Zrotation
			JOINT RightLeg
			{
				OFFSET -0.430392 -32.302628 3.733000
				CHANNELS 3 Xrotation Yrotation Zrotation
				JOINT RightFoot
				{
					OFFSET 0.430392 -48.264973 -6.423500
					CHANNELS 3 Xrotation Yrotation Zrotation
					JOINT RightToeBase
					{
						OFFSET -4.230900 -16.068199 23.438400
						CHANNELS 3 Xrotation Yrotation Zrotation
						JOINT RightToe_End
						{
							OFFSET -4.510700 0.695400 19.974600
							CHANNELS 3 Xrotation Yrotation Zrotation
							End Site
							{
								OFFSET 0 0 0
							}
						}
					}
				}
			}
		}
	}
	JOINT Spine_virtual
	{
		OFFSET 0.000000 0.000000 0.000000
		CHANNELS 3 Xrotation Yrotation Zrotation
		JOINT Spine
		{
			OFFSET -0.002400 12.777504 0.315300
			CHANNELS 3 Xrotation Yrotation Zrotation
			JOINT Spine1
			{
				OFFSET -0.002067 5.816869 0.032633
				CHANNELS 3 Xrotation Yrotation Zrotation
				JOINT Spine1_split
				{
					OFFSET -0.002067 5.816869 0.032633
					CHANNELS 3 Xrotation Yrotation Zrotation
					JOINT Spine2
					{
						OFFSET -0.002067 5.816869 0.032633
						CHANNELS 3 Xrotation Yrotation Zrotation
						JOINT Neck_virtual
						{
							OFFSET 0.000000 0.000000 0.000000
							CHANNELS 3 Xrotation Yrotation Zrotation
							JOINT Neck
							{
								OFFSET -0.003700 21.199493 -0.826900
								CHANNELS 3 Xrotation Yrotation Zrotation
								JOINT Head
								{
									OFFSET 0.000000 20.442200 4.834800
									CHANNELS 3 Xrotation Yrotation Zrotation
									JOINT HeadTop_End
									{
										OFFSET 0.000000 34.668396 4.968400
										CHANNELS 3 Xrotation Yrotation Zrotation
										End Site
										{
											OFFSET 0 0 0
										}
									}
								}
							}
						}
						JOINT LeftShoulder_virtual
						{
							OFFSET 0.000000 0.000000 0.000000
							CHANNELS 3 Xrotation Yrotation Zrotation
							JOINT LeftShoulder
							{
								OFFSET 3.288150 8.794197 -1.372250
								CHANNELS 3 Xrotation Yrotation Zrotation
								JOINT LeftShoulder_split
								{
									OFFSET 3.288150 8.794197 -1.372250
									CHANNELS 3 Xrotation Yrotation Zrotation
									JOINT LeftArm
									{
										OFFSET 11.953299 -2.279007 -0.146200
										CHANNELS 3 Xrotation Yrotation Zrotation
										JOINT LeftForeArm
										{
											OFFSET 18.448900 0.000000 0.000000
											CHANNELS 3 Xrotation Yrotation Zrotation
											JOINT LeftHand
											{
												OFFSET 29.527798 0.000000 0.000000
												CHANNELS 3 Xrotation Yrotation Zrotation
												End Site
												{
													OFFSET 0 0 0
												}
											}
										}
									}
								}
							}
						}
						JOINT RightShoulder_virtual
						{
							OFFSET 0.000000 0.000000 0.000000
							CHANNELS 3 Xrotation Yrotation Zrotation
							JOINT RightShoulder
							{
								OFFSET -3.249400 8.794197 -1.372250
								CHANNELS 3 Xrotation Yrotation Zrotation
								JOINT RightShoulder_split
								{
									OFFSET -3.249400 8.794197 -1.372250
									CHANNELS 3 Xrotation Yrotation Zrotation
									JOINT RightArm
									{
										OFFSET -11.953299 -2.279007 -0.146200
										CHANNELS 3 Xrotation Yrotation Zrotation
										JOINT RightForeArm
										{
											OFFSET -18.448900 0.000000 0.000000
											CHANNELS 3 Xrotation Yrotation Zrotation
											JOINT RightHand
											{
												OFFSET -29.527802 0.000000 0.000000
												CHANNELS 3 Xrotation Yrotation Zrotation
												End Site
												{
													OFFSET 0 0 0
												}
											}
										}
									}
								}
							}
						}
					}
				}
			}
		}
	}
}
MOTION
Frames: 7
Frame Time: 0.03333333
-0.301198 89.715836 0.171822 0.000000 0.000000 0.000000 3.020392 -58.275140 6.520082 -38.836917 8.057410 26.427549 42.579799 -7.215204 -9.677479 -5.192985 -2.782222 -10.043141 -0.327599 1.238421 0.837254 0.000000 0.000000 0.000000 3.020392 -58.275140 6.520082 -36.666477 -6.170754 -25.574624 47.501947 1.669014 -7.598036 -14.418857 3.655706 21.028086 -0.322815 -0.997436 -0.837141 0.000000 0.000000 0.000000 3.020392 -58.275140 6.520082 11.191484 0.139510 -2.738808 8.434585 0.027689 -5.592317 0.000000 0.000000 0.000000 0.000000 0.000000 0.000000 8.457039 0.027887 -5.591869 -21.555845 25.063371 12.062732 -0.293895 25.465775 -3.209027 0.000000 0.000000 0.000000 8.457039 0.027887 -5.591869 -6.221629 -11.503783 -4.023775 0.000000 0.000000 0.000000 -23.062223 9.568421 -36.639645 0.046078 -43.168927 -0.011175 0.000000 0.000000 0.000000 8.457039 0.027887 -5.591869 -5.488220 10.658253 2.466465 0.000000 0.000000 0.000000 -41.473906 -26.755581 30.079043 -155.044365 68.137154 156.691315 0.000000 0.000000 0.000000 
-0.584491 89.775444 0.554649 0.000000 0.000000 0.000000 1.931059 -58.227527 4.899328 -38.107131 7.170397 26.809061 43.089522 -6.996407 -9.731541 -5.785677 -2.718878 -10.164550 -0.327599 1.238427 0.837254 0.000000 0.000000 0.000000 1.931059 -58.227527 4.899328 -35.415996 -7.161327 -25.337919 46.893292 2.068973 -7.511443 -14.585314 3.611639 21.027016 -0.322797 -0.997336 -0.837123 0.000000 0.000000 0.000000 1.931059 -58.227527 4.899328 11.071815 0.074034 -2.860926 8.093936 -0.081179 -5.786255 0.000000 0.000000 0.000000 0.000000 0.000000 0.000000 8.133082 -0.021279 -5.670397 -18.473601 24.513721 14.037475 -1.509213 25.960388 -3.156110 0.000000 0.000000 0.000000 8.133082 -0.021279 -5.670397 -6.237333 -11.503388 -4.274839 0.000000 0.000000 0.000000 -23.016751 9.112622 -36.903635 0.376362 -42.965814 0.192089 0.000000 0.000000 0.000000 8.133082 -0.021279 -5.670397 -5.454992 9.092290 2.875203 0.000000 0.000000 0.000000 -39.552041 -24.929123 32.615270 -147.720777 70.244814 149.319970 0.000000 0.000000 0.000000 
-1.183039 89.838264 0.936844 0.000000 0.000000 0.000000 0.754700 -58.160352 3.179454 -37.278001 6.791794 27.636771 43.402673 -7.416965 -9.826689 -6.461247 -2.650614 -10.245629 -0.327599 1.238422 0.837254 0.000000 0.000000 0.000000 0.754700 -58.160352 3.179454 -33.846477 -8.134377 -24.895940 46.338599 2.281612 -7.442805 -15.021444 3.528972 21.030053 -0.322822 -0.997342 -0.837134 0.000000 0.000000 0.000000 0.754700 -58.160352 3.179454 10.777396 0.008495 -2.986226 7.238969 -0.187262 -5.957857 0.000000 0.000000 0.000000 0.000000 0.000000 0.000000 7.302201 -0.146033 -5.752772 -15.262428 23.781300 15.793675 -2.545714 26.126751 -2.432411 0.000000 0.000000 0.000000 7.302201 -0.146033 -5.752772 -6.328931 -11.385485 -4.905915 0.000000 0.000000 0.000000 -22.894425 7.888651 -37.610273 0.611311 -42.459919 0.290283 0.000000 0.000000 0.000000 7.302201 -0.146033 -5.752772 -5.464587 7.537292 3.772440 0.000000 0.000000 0.000000 -37.732513 -22.484996 35.680618 -145.612543 74.178955 146.687205 0.000000 0.000000 0.000000 
-1.472255 89.898369 1.289955 0.000000 0.000000 0.000000 -0.232253 -58.084762 1.676325 -36.833656 6.675150 28.434236 43.698362 -8.001153 -9.939266 -6.915570 -2.622603 -10.087777 -0.327599 1.238419 0.837254 0.000000 0.000000 0.000000 -0.232253 -58.084762 1.676325 -32.500837 -8.862912 -24.469603 45.676497 2.382702 -7.370752 -15.164939 3.486401 21.116336 -0.322805 -0.997384 -0.837163 0.000000 0.000000 0.000000 -0.232253 -58.084762 1.676325 10.395080 -0.047027 -3.089102 6.101849 -0.226091 -6.006305 0.000000 0.000000 0.000000 0.000000 0.000000 0.000000 6.176570 -0.295591 -5.836884 -13.169302 22.947257 16.636288 -0.497741 24.537632 -0.243715 0.000000 0.000000 0.000000 6.176570 -0.295591 -5.836884 -6.535416 -10.807641 -5.732530 0.000000 0.000000 0.000000 -22.738465 6.153022 -38.622879 0.152909 -41.815757 -0.103704 0.000000 0.000000 0.000000 6.176570 -0.295591 -5.836884 -5.443925 5.937225 4.860419 0.000000 0.000000 0.000000 -36.781347 -19.266239 38.375080 -132.687776 77.994504 133.370686 0.000000 0.000000 0.000000 
-1.359361 90.098274 1.521503 0.000000 0.000000 0.000000 -0.758278 -58.023652 0.702750 -36.700526 6.892425 28.936981 43.545833 -8.492136 -9.972439 -6.900129 -2.654042 -9.750539 -0.327599 1.238423 0.837254 0.000000 0.000000 0.000000 -0.758278 -58.023652 0.702750 -31.470537 -9.354601 -24.069303 44.605957 2.345922 -7.265854 -14.799406 3.537724 21.218211 -0.322800 -0.997350 -0.837136 0.000000 0.000000 0.000000 -0.758278 -58.023652 0.702750 9.927782 -0.002591 -3.119571 4.915973 -0.136435 -6.000500 0.000000 0.000000 0.000000 0.000000 0.000000 0.000000 4.992231 -0.192196 -5.908418 -15.170629 21.463772 16.313150 6.964696 20.228585 4.183038 0.000000 0.000000 0.000000 4.992231 -0.192196 -5.908418 -6.771017 -9.538077 -6.680923 0.000000 0.000000 0.000000 -22.567012 3.702470 -39.875020 -1.328071 -41.179996 -1.177741 0.000000 0.000000 0.000000 4.992231 -0.192196 -5.908418 -5.358072 4.518369 5.664418 0.000000 0.000000 0.000000 -36.421851 -16.491990 40.393698 -107.868440 80.722632 108.140876 0.000000 0.000000 0.000000 
-1.231359 90.653008 1.589481 0.000000 0.000000 0.000000 0.018039 -58.053377 1.228629 -36.601064 7.914456 28.896843 42.084279 -8.785454 -9.773531 -6.310860 -2.728876 -9.487819 -0.327599 1.238422 0.837253 0.000000 0.000000 0.000000 0.018039 -58.053377 1.228629 -30.839281 -9.655636 -23.748657 42.798672 2.172158 -7.089908 -14.035585 3.687327 21.193899 -0.322818 -0.997450 -0.837125 0.000000 0.000000 0.000000 0.018039 -58.053377 1.228629 9.380881 0.208765 -3.074138 3.918250 0.179810 -6.013969 0.000000 0.000000 0.000000 0.000000 0.000000 0.000000 3.962016 0.207642 -5.971797 -18.323116 20.051274 15.190821 14.989298 15.809612 7.710247 0.000000 0.000000 0.000000 3.962016 0.207642 -5.971797 -6.956646 -8.356691 -7.357542 0.000000 0.000000 0.000000 -22.452949 1.056125 -41.326131 -1.914962 -40.730262 -1.654385 0.000000 0.000000 0.000000 3.962016 0.207642 -5.971797 -5.258173 3.254546 6.519908 0.000000 0.000000 0.000000 -36.060769 -15.244554 41.265459 -89.955169 80.905278 90.006805 0.000000 0.000000 0.000000 
-1.053747 91.499542 1.608246 0.000000 0.000000 0.000000 1.355386 -58.743295 2.340546 -36.147485 9.665769 28.759553 39.746397 -8.671844 -9.371447 -5.476734 -2.811936 -9.379822 -0.327599 1.238423 0.837254 0.000000 0.000000 0.000000 1.355386 -58.743295 2.340546 -30.357261 -9.936785 -23.353072 40.203269 2.529259 -6.781754 -12.769596 3.975238 20.861199 -0.324387 -0.997519 -0.832994 0.000000 0.000000 0.000000 1.355386 -58.743295 2.340546 8.838633 0.412472 -2.906625 3.362155 0.462227 -6.017345 0.000000 0.000000 0.000000 0.000000 0.000000 0.000000 3.275492 0.581072 -5.998078 -21.246917 19.321085 12.657142 17.844846 13.374507 7.838810 0.000000 0.000000 0.000000 3.275492 0.581072 -5.998078 -7.053099 -7.444192 -7.457747 0.000000 0.000000 0.000000 -22.413812 -0.011829 -42.202373 -1.723692 -41.283876 -1.669438 0.000000 0.000000 0.000000 3.275492 0.581072 -5.998078 -5.183510 2.455851 7.265821 0.000000 0.000000 0.000000 -36.167528 -14.080265 41.515935 -81.232068 80.405561 81.160802 0.000000 0.000000 0.000000 
